<?xml version="1.0" encoding="utf-8"?>
<svg viewBox="0 0 512 512" style="enable-background:new 0 0 512 512;" xmlns="http://www.w3.org/2000/svg">
  <defs>
    <style type="text/css">
	.st0{fill:#2F9DD9;}
</style>
  </defs>
  <g id="XMLID_947_">
    <path class="st0" d="M352.9,6L352.9,6L107.4,6c-7.3,0-13.3,6-13.3,13.3v256.8h26.6V32.6h232.2v92.2h92.2v354.6   H120.7v-49.8H94.1v63.1c0,7.3,6,13.3,13.3,13.3h351c7.3,0,13.3-6,13.3-13.3V124.8L352.9,6z" id="XMLID_950_" style="fill: rgb(167, 165, 164);"/>
    <rect class="st0" height="19.6" id="XMLID_949_" width="191.388" x="171.761" y="211.788" style="fill: rgb(216, 214, 213);"/>
    <rect class="st0" height="19.6" id="rect-2" width="253.4" x="172.801" y="251.788" style="fill: rgb(216, 214, 213);"/>
    <rect class="st0" height="19.6" id="rect-3" width="253.4" x="175.108" y="295.552" style="fill: rgb(216, 214, 213);"/>
    <rect class="st0" height="19.6" id="rect-4" width="253.4" x="174.11" y="336.976" style="fill: rgb(216, 214, 213);"/>
    <rect class="st0" height="19.6" id="rect-5" width="253.4" x="174.271" y="378.013" style="fill: rgb(216, 214, 213);"/>
    <path d="M 250.041 201.211 L 250.041 436.335 L 14.917 436.335 L 14.917 201.211 Z" style="fill-rule: nonzero; stroke-linejoin: round; fill: rgb(179, 11, 1);"/>
    <path d="M 51.088 360.187 L 19.418 360.187 L 19.418 352.557 L 29.288 350.867 L 29.288 281.417 L 19.418 279.717 L 19.418 272.027 L 29.288 272.027 L 59.928 272.027 C 66.228 272.027 71.598 273.127 76.038 275.327 C 80.478 277.527 83.868 280.607 86.208 284.567 C 88.548 288.52 89.718 293.14 89.718 298.427 C 89.718 303.754 88.548 308.397 86.208 312.357 C 83.868 316.31 80.478 319.377 76.038 321.557 C 71.598 323.737 66.228 324.827 59.928 324.827 L 41.218 324.827 L 41.218 350.867 L 51.088 352.557 L 51.088 360.187 Z M 41.218 281.417 L 41.218 315.507 L 59.928 315.507 C 65.901 315.507 70.371 313.9 73.338 310.687 C 76.305 307.48 77.788 303.434 77.788 298.547 C 77.788 293.667 76.305 289.59 73.338 286.317 C 70.371 283.05 65.901 281.417 59.928 281.417 L 41.218 281.417 ZM 133.066 360.187 L 97.946 360.187 L 97.946 352.557 L 107.816 350.867 L 107.816 281.417 L 97.946 279.717 L 97.946 272.027 L 107.816 272.027 L 132.466 272.027 C 140.253 272.027 147.043 273.884 152.836 277.597 C 158.629 281.31 163.139 286.417 166.366 292.917 C 169.599 299.417 171.216 306.844 171.216 315.197 L 171.216 317.077 C 171.216 325.23 169.659 332.567 166.546 339.087 C 163.439 345.607 159.029 350.754 153.316 354.527 C 147.609 358.3 140.859 360.187 133.066 360.187 Z M 119.746 281.417 L 119.746 350.867 L 132.466 350.867 C 138.033 350.867 142.816 349.34 146.816 346.287 C 150.809 343.24 153.886 339.164 156.046 334.057 C 158.206 328.95 159.286 323.29 159.286 317.077 L 159.286 315.077 C 159.286 308.664 158.206 302.924 156.046 297.857 C 153.886 292.79 150.809 288.784 146.816 285.837 C 142.816 282.89 138.033 281.417 132.466 281.417 L 119.746 281.417 ZM 211.716 360.187 L 180.046 360.187 L 180.046 352.557 L 189.916 350.867 L 189.916 281.417 L 180.046 279.717 L 180.046 272.027 L 246.346 272.027 L 246.346 293.227 L 236.786 293.227 L 235.446 281.297 L 201.846 281.297 L 201.846 311.807 L 234.116 311.807 L 234.116 321.197 L 201.846 321.197 L 201.846 350.867 L 211.716 352.557 L 211.716 360.187 Z" transform="matrix(0.8607990145683289, 0, 0, 0.9248530268669128, 17.07335662841797, 26.83310317993164)" style="fill: rgb(255, 255, 255); white-space: pre;"/>
  </g>
</svg>