<?xml version="1.0" standalone="no"?>
<!DOCTYPE svg PUBLIC "-//W3C//DTD SVG 20010904//EN"
 "http://www.w3.org/TR/2001/REC-SVG-20010904/DTD/svg10.dtd">
<svg version="1.0" xmlns="http://www.w3.org/2000/svg"
  viewBox="0 0 461.000000 512.000000"
 preserveAspectRatio="xMidYMid meet">
<metadata>
Created by potrace 1.16, written by Peter Selinger 2001-2019
</metadata>
<g transform="translate(0.000000,512.000000) scale(0.100000,-0.100000)"
fill="#000000" stroke="none">
<path d="M565 5104 c-45 -23 -76 -55 -96 -99 -18 -38 -19 -85 -19 -877 l0
-838 -88 0 c-54 0 -106 -6 -135 -16 -60 -20 -126 -79 -157 -140 l-25 -49 -3
-819 -2 -818 23 -52 c35 -75 73 -115 142 -147 52 -25 72 -29 153 -29 l92 0 0
-533 0 -533 23 -44 c12 -24 39 -58 60 -74 l39 -31 1738 0 1738 0 39 31 c21 16
48 50 61 74 l22 44 0 533 0 533 93 0 c81 0 99 4 152 29 73 35 106 68 140 142
l25 57 -2 818 -3 819 -25 49 c-31 61 -97 120 -157 140 -29 10 -81 16 -135 16
l-88 0 0 318 c-1 230 -4 323 -13 338 -20 33 -993 1140 -1018 1158 -21 15 -139
16 -1284 16 -1122 0 -1263 -2 -1290 -16z m2407 -725 l3 -531 33 -29 32 -29
460 0 460 0 0 -250 0 -250 -1650 0 -1650 0 0 810 0 810 1155 0 1154 0 3 -531z
m-2052 -1525 c155 -29 289 -122 348 -240 40 -81 55 -153 55 -260 -1 -269 -130
-447 -377 -523 -116 -36 -373 -48 -523 -25 l-33 5 0 520 c0 437 2 520 14 525
21 8 290 19 371 16 39 -2 104 -10 145 -18z m1191 10 c213 -63 333 -227 354
-484 9 -107 -14 -225 -64 -325 -86 -173 -245 -265 -458 -265 -291 1 -493 220
-493 537 0 264 133 462 359 534 73 24 227 25 302 3z m1210 6 c30 -6 66 -15 80
-21 l26 -10 -20 -82 c-11 -45 -23 -86 -27 -90 -4 -5 -33 -1 -65 8 -81 24 -231
17 -298 -14 -131 -61 -202 -217 -177 -394 26 -183 151 -287 345 -287 39 0 97
7 129 15 33 9 61 13 64 10 6 -5 31 -131 32 -157 1 -45 -268 -74 -409 -44 -248
52 -390 219 -408 477 -8 114 9 206 57 305 65 134 194 237 350 278 64 17 244
20 321 6z m557 -185 c46 -99 87 -184 91 -188 5 -5 20 22 35 60 15 37 52 123
83 191 l56 122 129 0 c100 0 129 -3 125 -12 -2 -7 -68 -123 -146 -256 -77
-134 -141 -248 -141 -254 0 -5 65 -120 143 -256 79 -136 149 -257 156 -269
l12 -23 -134 0 -134 0 -94 195 c-52 107 -97 194 -102 195 -4 0 -12 -12 -18
-27 -6 -16 -44 -103 -86 -195 l-76 -168 -129 0 c-70 0 -128 3 -128 6 0 4 68
125 150 269 83 144 150 265 150 268 0 3 -65 121 -145 262 -80 141 -145 259
-145 261 0 3 59 3 132 2 l132 -3 84 -180z m82 -1945 l0 -480 -1650 0 -1650 0
0 480 0 480 1650 0 1650 0 0 -480z"/>
<path d="M643 2693 l-23 -4 0 -355 0 -354 27 -7 c42 -10 208 14 254 37 56 29
114 90 139 147 48 109 48 289 1 381 -23 43 -83 103 -126 125 -58 29 -197 44
-272 30z"/>
<path d="M1862 2684 c-117 -51 -188 -237 -162 -427 24 -171 103 -269 230 -284
113 -13 214 54 260 173 21 51 24 77 24 189 0 112 -3 138 -22 186 -46 116 -132
180 -239 178 -32 0 -73 -7 -91 -15z"/>
</g>
</svg>
