<?xml version="1.0" standalone="no"?>
<!DOCTYPE svg PUBLIC "-//W3C//DTD SVG 20010904//EN"
 "http://www.w3.org/TR/2001/REC-SVG-20010904/DTD/svg10.dtd">
<svg version="1.0" xmlns="http://www.w3.org/2000/svg"
 viewBox="0 0 840.000000 850.000000"
 preserveAspectRatio="xMidYMid meet">
<metadata>
Created by potrace 1.16, written by Peter Selinger 2001-2019
</metadata>
<g transform="translate(0.000000,850.000000) scale(0.100000,-0.100000)"
fill="#000000" stroke="none">
<path d="M2333 8080 c-111 -3 -205 -8 -209 -13 -18 -18 -24 -434 -22 -1547 l3
-1195 275 0 275 0 3 1101 2 1101 118 6 c64 3 808 4 1652 3 l1535 -2 33 -24
c68 -50 133 -183 182 -374 51 -200 60 -302 67 -762 l6 -422 246 -6 c652 -16
820 -37 1009 -129 89 -43 127 -89 138 -163 8 -62 6 -4685 -3 -4694 -2 -3
-1125 -6 -2494 -8 l-2489 -2 0 325 0 325 -262 0 c-145 0 -269 -4 -275 -8 -10
-6 -13 -141 -15 -572 -2 -311 1 -575 5 -587 7 -18 19 -23 75 -30 87 -10 5859
-11 5933 0 50 7 58 11 64 35 4 15 10 1302 12 2861 l5 2834 -979 979 -978 978
-1855 -2 c-1020 -1 -1946 -5 -2057 -8z"/>
<path d="M733 4740 l-443 -5 -36 -36 c-36 -37 -37 -37 -45 -150 -4 -63 -8
-600 -8 -1194 l-1 -1081 48 -47 48 -48 3045 3 3044 3 35 21 c68 40 65 -29 68
1268 l3 1170 -53 53 -53 53 -2605 -2 c-1433 -1 -2804 -5 -3047 -8z m2537 -480
c133 -7 181 -13 245 -34 157 -50 328 -170 419 -295 208 -283 197 -697 -25
-968 -104 -127 -271 -233 -433 -273 -108 -27 -353 -42 -641 -38 l-240 3 -3
800 c-1 440 0 805 2 811 5 12 398 9 676 -6z m-1350 -19 c143 -43 244 -108 309
-201 82 -116 114 -264 93 -416 -29 -197 -126 -330 -300 -411 -106 -49 -181
-62 -409 -70 l-203 -6 0 -244 0 -243 -180 0 -180 0 0 811 0 811 398 -5 c372
-4 402 -6 472 -26z m3710 -131 l0 -160 -435 0 -435 0 0 -175 0 -175 385 0 385
0 -2 -162 -3 -163 -382 -3 -383 -2 0 -311 0 -312 -172 8 c-95 4 -176 10 -181
14 -4 4 -6 362 -5 797 l3 789 35 6 c19 4 295 7 613 8 l577 1 0 -160z"/>
<path d="M2955 3939 c-3 -8 -4 -225 -3 -484 l3 -470 164 -3 c186 -3 249 6 337
47 83 39 137 90 190 180 60 103 69 152 56 293 -15 152 -38 212 -114 294 -106
113 -180 137 -470 149 -128 6 -159 5 -163 -6z"/>
<path d="M1415 3939 c-3 -8 -4 -120 -3 -249 l3 -235 63 -3 c117 -5 306 15 361
39 97 41 138 124 125 247 -8 70 -23 100 -68 140 -54 47 -119 62 -308 69 -140
5 -168 4 -173 -8z"/>
</g>
</svg>
