<svg width="22" height="22" viewBox="0 0 25 25" stroke="currentColor" fill="none" xmlns="http://www.w3.org/2000/svg">
    <mask id="mask0" mask-type="alpha" maskUnits="userSpaceOnUse" x="0" y="0" width="25" height="25">
        <path fill-rule="evenodd" clip-rule="evenodd"
            d="M8.33263 2C8.33263 0.89543 9.22806 0 10.3326 0H14.666C15.7705 0 16.666 0.895431 16.666 2V2.04591C16.7597 2.08328 16.8527 2.12188 16.9452 2.16169L16.9793 2.12753C17.7604 1.34648 19.0267 1.34648 19.8078 2.12753L22.8719 5.19166C23.6529 5.97271 23.6529 7.23904 22.8719 8.02009L22.8377 8.05427C22.8775 8.14677 22.9162 8.23992 22.9536 8.33369H23C24.1046 8.33369 25 9.22912 25 10.3337V14.667C25 15.7716 24.1046 16.667 23 16.667H22.9528C22.9156 16.7602 22.8772 16.8529 22.8376 16.9448L22.8713 16.9786C23.6524 17.7597 23.6524 19.026 22.8713 19.807L19.8072 22.8712C19.0262 23.6522 17.7598 23.6522 16.9788 22.8712L16.9448 22.8372C16.8525 22.8769 16.7595 22.9155 16.666 22.9528V23C16.666 24.1046 15.7705 25 14.666 25H10.3326C9.22806 25 8.33263 24.1046 8.33263 23V22.9523C8.23943 22.9151 8.14685 22.8767 8.05491 22.8371L8.02265 22.8693C7.24161 23.6504 5.97528 23.6504 5.19423 22.8693L2.1301 19.8052C1.34905 19.0242 1.34905 17.7578 2.1301 16.9768L2.16232 16.9445C2.12276 16.8527 2.08439 16.7601 2.04722 16.667H2C0.89543 16.667 0 15.7716 0 14.667V10.3337C0 9.22912 0.895431 8.33369 2 8.33369H2.04643C2.08379 8.24001 2.12238 8.14696 2.16216 8.05455L2.12955 8.02193C1.3485 7.24088 1.3485 5.97455 2.12955 5.19351L5.19368 2.12938C5.97472 1.34833 7.24105 1.34833 8.0221 2.12938L8.05453 2.16181C8.1466 2.12216 8.23931 2.08371 8.33263 2.04647V2Z"
            fill="white" />
    </mask>
    <g mask="url(#mask0)">
        <path
            d="M12.5771 16.8271C14.9244 16.8271 16.8271 14.9244 16.8271 12.5771C16.8271 10.2299 14.9244 8.32715 12.5771 8.32715C10.2299 8.32715 8.32715 10.2299 8.32715 12.5771C8.32715 14.9244 10.2299 16.8271 12.5771 16.8271Z"
            stroke-width="2" />
        <path
            d="M11.5137 1C10.4294 1 9.54098 1.79003 9.375 2.82617C8.94152 2.96902 8.51806 3.14063 8.10742 3.33984C7.25255 2.62209 5.9903 2.65423 5.18555 3.45898L3.59961 5.04492C2.81193 5.8326 2.76268 7.06054 3.43359 7.91406C3.22605 8.32151 3.04596 8.74237 2.89453 9.17383C1.82464 9.31045 1 10.2082 1 11.3164V13.5586C1 14.6334 1.77424 15.5162 2.79687 15.6934C2.94712 16.1644 3.13119 16.6239 3.34766 17.0684C2.7632 17.9151 2.84485 19.0753 3.59961 19.8301L5.18555 21.418C5.92318 22.1556 7.04943 22.2524 7.89062 21.7109C8.36846 21.9558 8.86478 22.1628 9.375 22.3301C9.54115 23.366 10.4295 24.1543 11.5137 24.1543H13.7578C14.856 24.1543 15.7493 23.3448 15.8984 22.2891C16.3669 22.1289 16.8232 21.935 17.2637 21.709C18.1051 22.2521 19.2324 22.1563 19.9707 21.418L21.5566 19.8301C22.3121 19.0747 22.3928 17.9134 21.8066 17.0664C22.0224 16.6225 22.2058 16.1636 22.3555 15.6934C23.3797 15.5177 24.1543 14.6347 24.1543 13.5586V11.3164C24.1543 10.2075 23.3304 9.30757 22.2598 9.17188C22.1083 8.74108 21.9282 8.32088 21.7207 7.91406C22.3924 7.06051 22.3446 5.8329 21.5566 5.04492L19.9707 3.45898C19.166 2.65423 17.9037 2.62209 17.0488 3.33984C16.6753 3.15852 16.2911 3.00003 15.8984 2.86523C15.7487 1.81012 14.8555 1 13.7578 1H11.5137Z"
            stroke-width="2" stroke-linecap="round" stroke-linejoin="round" />
    </g>
</svg>