<?xml version="1.0" encoding="utf-8"?>
<svg viewBox="0 0 512 512" style="enable-background:new 0 0 512 512;" xmlns="http://www.w3.org/2000/svg">
  <defs>
    <style type="text/css">
	.st0{fill:#2F9DD9;}
</style>
  </defs>
  <g id="XMLID_947_">
    <path class="st0" d="M352.9,6L352.9,6L107.4,6c-7.3,0-13.3,6-13.3,13.3v256.8h26.6V32.6h232.2v92.2h92.2v354.6   H120.7v-49.8H94.1v63.1c0,7.3,6,13.3,13.3,13.3h351c7.3,0,13.3-6,13.3-13.3V124.8L352.9,6z" id="XMLID_950_" style="fill: rgb(167, 165, 164);"/>
    <rect class="st0" height="19.6" id="XMLID_949_" width="191.388" x="171.761" y="211.788" style="fill: rgb(216, 214, 213);"/>
    <rect class="st0" height="19.6" id="rect-2" width="253.4" x="172.801" y="251.788" style="fill: rgb(216, 214, 213);"/>
    <rect class="st0" height="19.6" id="rect-3" width="253.4" x="175.108" y="295.552" style="fill: rgb(216, 214, 213);"/>
    <rect class="st0" height="19.6" id="rect-4" width="253.4" x="174.11" y="336.976" style="fill: rgb(216, 214, 213);"/>
    <rect class="st0" height="19.6" id="rect-5" width="253.4" x="174.271" y="378.013" style="fill: rgb(216, 214, 213);"/>
    <path d="M 250.041 201.211 L 250.041 436.335 L 14.917 436.335 L 14.917 201.211 Z" style="fill-rule: nonzero; stroke-linejoin: round; fill: rgb(24, 90, 189);"/>
    <path d="M 70.828 360.187 L 56.888 360.187 L 29.958 256.127 L 20.218 254.937 L 20.218 244.877 L 57.598 244.877 L 57.598 254.937 L 45.638 256.757 L 60.688 320.197 L 64.168 335.007 L 64.648 335.087 L 69.238 320.277 L 92.448 244.877 L 106.148 244.877 L 129.588 320.277 L 134.098 335.957 L 134.578 335.957 L 138.698 320.277 L 153.578 256.757 L 140.678 254.937 L 140.678 244.877 L 177.418 244.877 L 177.418 254.937 L 168.308 256.127 L 142.498 360.187 L 127.688 360.187 L 102.658 280.357 L 99.488 268.717 L 99.018 268.717 L 95.928 280.357 L 70.828 360.187 Z" transform="matrix(0.8607990145683289, 0, 0, 0.9248530268669128, 42.513851165771484, 37.90058898925781)" style="fill: rgb(255, 255, 255); line-height: 256.041px; white-space: pre;"/>
  </g>
</svg>